<?xml version="1.0" encoding="utf-8"?>
<!-- Generator: Adobe Illustrator 24.0.1, SVG Export Plug-In . SVG Version: 6.00 Build 0)  -->
<svg version="1.1" id="Laag_1" xmlns="http://www.w3.org/2000/svg" xmlns:xlink="http://www.w3.org/1999/xlink" x="0px" y="0px"
	 viewBox="0 0 595.3 841.9" style="enable-background:new 0 0 595.3 841.9;" xml:space="preserve">
<style type="text/css">
	.st0{fill:#ACDEF9;stroke:#000000;stroke-miterlimit:10;}
	.st1{fill:#FFFFFF;stroke:#000000;stroke-miterlimit:10;}
	.st2{fill:#5284C4;stroke:#000000;stroke-miterlimit:10;}
	.st3{fill:none;stroke:#000000;stroke-miterlimit:10;}
	.st4{fill:#97C1D8;stroke:#000000;stroke-miterlimit:10;}
	.st5{fill:#A4A3A3;stroke:#000000;stroke-miterlimit:10;}
	.st6{fill:#DCDCDC;stroke:#000000;stroke-miterlimit:10;}
	.st7{font-family:'MyriadPro-Regular';}
	.st8{font-size:12px;}
	.st9{fill:none;}
	.st10{fill:#FFFAD4;stroke:#DADADA;stroke-miterlimit:10;}
</style>
<path class="st0" d="M382.8,303.2H193.4c-6.6,0-12-5.4-12-12V185.5c0-6.6,5.4-12,12-12h189.4c6.6,0,12,5.4,12,12v105.7
	C394.8,297.8,389.4,303.2,382.8,303.2z"/>
<path class="st1" d="M269.7,229.7h-23.3c-6.6,0-12-5.4-12-12v-8c0-6.6,5.4-12,12-12h23.3c6.6,0,12,5.4,12,12v8
	C281.7,224.3,276.3,229.7,269.7,229.7z"/>
<path class="st1" d="M331.3,229.3H308c-6.6,0-12-5.4-12-12v-8c0-6.6,5.4-12,12-12h23.3c6.6,0,12,5.4,12,12v8
	C343.3,223.9,337.9,229.3,331.3,229.3z"/>
<path class="st2" d="M250,224.3h-4c-2.6,0-4.7-2.1-4.7-4.7v0c0-2.6,2.1-4.7,4.7-4.7h4c2.6,0,4.7,2.1,4.7,4.7v0
	C254.7,222.2,252.6,224.3,250,224.3z"/>
<path class="st2" d="M330,211.7h-4c-2.6,0-4.7-2.1-4.7-4.7l0,0c0-2.6,2.1-4.7,4.7-4.7h4c2.6,0,4.7,2.1,4.7,4.7l0,0
	C334.7,209.6,332.6,211.7,330,211.7z"/>
<ellipse class="st2" cx="287" cy="251" rx="6.3" ry="19.7"/>
<path class="st2" d="M178.2,274.5L178.2,274.5c1.6,0,2.8-1.3,2.8-2.8V208c0-1.6-1.3-2.8-2.8-2.8h0c-1.6,0-2.8,1.3-2.8,2.8v63.7
	C175.3,273.2,176.6,274.5,178.2,274.5z"/>
<path class="st2" d="M398.8,270L398.8,270c1.6,0,2.8-1.3,2.8-2.8v-63.7c0-1.6-1.3-2.8-2.8-2.8l0,0c-1.6,0-2.8,1.3-2.8,2.8v63.7
	C396,268.7,397.3,270,398.8,270z"/>
<path class="st0" d="M171.2,267.5L171.2,267.5c-2.1,0-3.9-1.7-3.9-3.9v-47.5c0-2.1,1.7-3.9,3.9-3.9h0c2.1,0,3.9,1.7,3.9,3.9v47.5
	C175.1,265.7,173.3,267.5,171.2,267.5z"/>
<path class="st0" d="M406,262.9L406,262.9c-2.1,0-3.9-1.7-3.9-3.9v-47.5c0-2.1,1.7-3.9,3.9-3.9l0,0c2.1,0,3.9,1.7,3.9,3.9v47.5
	C409.8,261.2,408.1,262.9,406,262.9z"/>
<path class="st2" d="M162.1,257.4L162.1,257.4c-2.6,0-4.8-2.1-4.8-4.7v-28c0-2.6,2.1-4.7,4.8-4.7h0c2.6,0,4.7,2.1,4.7,4.7v28
	C166.8,255.3,164.7,257.4,162.1,257.4z"/>
<path class="st2" d="M414.6,257.4L414.6,257.4c-2.6,0-4.8-2.1-4.8-4.7v-28c0-2.6,2.1-4.7,4.8-4.7l0,0c2.6,0,4.8,2.1,4.8,4.7v28
	C419.3,255.3,417.2,257.4,414.6,257.4z"/>
<path class="st2" d="M341.6,315.7H221.1c-3.4,0-6.3-2.8-6.3-6.2v0c0-3.4,2.8-6.3,6.3-6.3h120.5c3.4,0,6.3,2.8,6.3,6.3v0
	C347.8,312.9,345,315.7,341.6,315.7z"/>
<path class="st0" d="M337.8,323.2H229.3c-1.9,0-3.5-1.6-3.5-3.5l0,0c0-1.9,1.6-3.5,3.5-3.5h108.5c1.9,0,3.5,1.6,3.5,3.5l0,0
	C341.3,321.6,339.8,323.2,337.8,323.2z"/>
<path class="st2" d="M320.2,330.7h-78c-1.5,0-2.8-1.2-2.8-2.8v-1c0-1.5,1.2-2.8,2.8-2.8h78c1.5,0,2.8,1.2,2.8,2.8v1
	C323,329.4,321.7,330.7,320.2,330.7z"/>
<path class="st3" d="M309,373.2h-65c-6.1,0-11-4.9-11-11v0c0-6,4.9-11,11-11h65c6,0,11,5,11,11v0C320,368.2,315.1,373.2,309,373.2z"
	/>
<path class="st0" d="M354.6,620.7H201.1c-6.6,0-12-5.4-12-12V343.2c0-6.6,5.4-12,12-12h153.5c6.6,0,12,5.4,12,12v265.5
	C366.6,615.3,361.2,620.7,354.6,620.7z"/>
<path class="st2" d="M196.7,396h-32.5c-6.6,0-12-5.4-12-12v-30c0-6.6,5.4-12,12-12h32.5c6.6,0,12,5.4,12,12v30
	C208.7,390.6,203.3,396,196.7,396z"/>
<path class="st0" d="M153.2,385.3h-28c-6.6,0-12-5.4-12-12v-8.5c0-6.6,5.4-12,12-12h28c6.6,0,12,5.4,12,12v8.5
	C165.2,379.9,159.8,385.3,153.2,385.3z"/>
<path class="st0" d="M121.7,384.2h-2.5c-6.6,0-12-5.4-12-12v-113c0-6.6,5.4-12,12-12h2.5c6.6,0,12,5.4,12,12v113
	C133.7,378.8,128.3,384.2,121.7,384.2z"/>
<polygon class="st4" points="141.4,230.8 131.9,256.9 104.6,261.7 86.8,240.5 96.2,214.5 123.5,209.6 "/>
<circle class="st5" cx="199.2" cy="349.2" r="3.5"/>
<circle class="st5" cx="199.7" cy="386.2" r="3.5"/>
<circle class="st5" cx="158.2" cy="367.2" r="3.5"/>
<circle class="st5" cx="125.2" cy="365.7" r="3.5"/>
<circle class="st5" cx="119.7" cy="259.7" r="3.5"/>
<polygon class="st6" points="144.7,257.7 119.5,253.1 101.4,271.3 98,245.9 75.1,234.3 98.2,223.2 102.1,197.8 119.8,216.4 
	145.2,212.3 133,234.9 "/>
<circle class="st5" cx="113.5" cy="233.4" r="5.3"/>
<text transform="matrix(1 0 0 1 246.0701 365.6667)" class="st7 st8">Killer Bot 2.0</text>
<path class="st9" d="M305.5,373.7h-56c-6.2,0-11.2-5.1-11.2-11.2v0c0-6.2,5.1-11.3,11.2-11.3h56c6.2,0,11.2,5.1,11.2,11.3v0
	C316.7,368.6,311.6,373.7,305.5,373.7z"/>
<path class="st2" d="M366.7,343l32.5,0.2c6.6,0,12,5.5,11.9,12.1l-0.2,30c0,6.6-5.5,12-12.1,11.9l-32.5-0.2c-6.6,0-12-5.5-11.9-12.1
	l0.2-30C354.7,348.3,360.1,343,366.7,343z"/>
<path class="st0" d="M410.1,354l28,0.2c6.6,0,12,5.5,11.9,12.1l-0.1,8.5c0,6.6-5.5,12-12.1,11.9l-28-0.2c-6.6,0-12-5.5-11.9-12.1
	l0.1-8.5C398.1,359.3,403.5,354,410.1,354z"/>
<path class="st0" d="M441.6,355.3l2.5,0c6.6,0,12,5.5,11.9,12.1l-0.7,113c0,6.6-5.5,12-12.1,11.9l-2.5,0c-6.6,0-12-5.5-11.9-12.1
	l0.7-113C429.6,360.7,435,355.3,441.6,355.3z"/>
<polygon class="st4" points="421,508.6 430.6,482.6 458,477.9 475.7,499.2 466.1,525.2 438.8,529.9 "/>
<circle class="st5" cx="363.9" cy="389.9" r="3.5"/>
<circle class="st5" cx="363.6" cy="352.9" r="3.5"/>
<circle class="st5" cx="405" cy="372.1" r="3.5"/>
<circle class="st5" cx="438" cy="373.8" r="3.5"/>
<circle class="st5" cx="442.9" cy="479.8" r="3.5"/>
<polygon class="st6" points="417.9,481.7 443.1,486.4 461.2,468.4 464.5,493.8 487.3,505.5 464.2,516.5 460.1,541.8 442.5,523.1 
	417.1,527.1 429.4,504.6 "/>
<circle class="st5" cx="449" cy="506.1" r="5.3"/>
<path class="st4" d="M319.7,295.7h-65.3c-4.8,0-8.7-3.9-8.7-8.7l0,0c0-4.8,3.9-8.7,8.7-8.7h65.3c4.8,0,8.7,3.9,8.7,8.7l0,0
	C328.3,291.8,324.4,295.7,319.7,295.7z"/>
<polyline class="st4" points="247.7,291.7 258.3,285 272.3,291 281.7,283 291.7,291 299.7,283.7 309.7,289.7 318.3,283.7 325,289.7 
	326.7,291.3 "/>
<path class="st1" d="M379,319.8"/>
<path class="st3" d="M303.3,371.7H248c-5.7,0-10.3-4.6-10.3-10.3v0c0-5.7,4.6-10.3,10.3-10.3h55.3c5.7,0,10.3,4.6,10.3,10.3v0
	C313.7,367,309,371.7,303.3,371.7z"/>
<path class="st0" d="M258,842.3h-59.3c-6.6,0-12-5.4-12-12V637c0-6.6,5.4-12,12-12H258c6.6,0,12,5.4,12,12v193.3
	C270,836.9,264.6,842.3,258,842.3z"/>
<path class="st0" d="M358.7,842.3h-59.3c-6.6,0-12-5.4-12-12V637c0-6.6,5.4-12,12-12h59.3c6.6,0,12,5.4,12,12v193.3
	C370.7,836.9,365.3,842.3,358.7,842.3z"/>
<path class="st2" d="M356.3,636.3H199c-6.6,0-12-5.4-12-12v-18c0-6.6,5.4-12,12-12h157.3c6.6,0,12,5.4,12,12v18
	C368.3,630.9,362.9,636.3,356.3,636.3z"/>
<circle class="st5" cx="205.3" cy="617.7" r="6"/>
<circle class="st5" cx="349.3" cy="617.7" r="6"/>
<path class="st4" d="M267.3,568.7h-47c-6.6,0-12-5.4-12-12v-121c0-6.6,5.4-12,12-12h47c6.6,0,12,5.4,12,12v121
	C279.3,563.3,273.9,568.7,267.3,568.7z"/>
<path class="st2" d="M328.7,448.7h-31c-5.8,0-10.5-4.7-10.5-10.5v0c0-5.8,4.7-10.5,10.5-10.5h31c5.8,0,10.5,4.7,10.5,10.5v0
	C339.2,443.9,334.5,448.7,328.7,448.7z"/>
<path class="st4" d="M328.7,477.7h-31c-5.8,0-10.5-4.7-10.5-10.5v0c0-5.8,4.7-10.5,10.5-10.5h31c5.8,0,10.5,4.7,10.5,10.5v0
	C339.2,472.9,334.5,477.7,328.7,477.7z"/>
<circle class="st4" cx="297.6" cy="487.9" r="6"/>
<ellipse transform="matrix(0.7069 -0.7073 0.7073 0.7069 -254.29 363.6696)" class="st2" cx="311.7" cy="488.7" rx="6" ry="5.9"/>
<circle class="st4" cx="326.6" cy="488.7" r="6"/>
<polygon class="st2" points="327.4,500.1 341.6,507.5 327.4,514.8 299,514.8 284.8,507.5 299,500.1 "/>
<polygon class="st2" points="324.8,520.9 301.6,520.9 290,541 301.6,561.1 324.8,561.1 336.4,541 "/>
<polygon class="st4" points="322.9,555.5 312.9,550.2 302.9,555.4 304.9,544.2 296.8,536.3 308,534.7 313.1,524.6 318,534.8 
	329.3,536.5 321.1,544.4 "/>
<path class="st1" d="M409.3,144.7"/>
<g>
	<polygon class="st10" points="196.4,120.9 181.1,119.1 167.3,126 168.5,116.3 155.6,111.8 171.7,107.7 177.5,98.1 186.2,105.2 
		202.6,103.7 192,112.3 	"/>
	<polygon class="st10" points="242.1,107.3 226.9,105.5 213.1,112.3 214.3,102.7 201.4,98.2 217.4,94.1 223.2,84.5 231.9,91.6 
		248.4,90.1 237.8,98.6 	"/>
	<polygon class="st10" points="297,105.5 281.8,103.6 268,110.5 269.2,100.8 256.3,96.4 272.3,92.2 278.1,82.6 286.8,89.7 
		303.3,88.2 292.7,96.8 	"/>
	<polygon class="st10" points="353.5,108.3 338.3,106.5 324.5,113.3 325.7,103.7 312.8,99.2 328.8,95 334.6,85.4 343.3,92.5 
		359.8,91.1 349.2,99.6 	"/>
	<polygon class="st10" points="407.1,114.9 391.9,113.1 378.1,119.9 379.3,110.3 366.4,105.8 382.4,101.7 388.2,92.1 396.9,99.2 
		413.4,97.7 402.8,106.2 	"/>
	<polygon class="st10" points="447.7,132.2 432.4,130.3 418.6,137.2 419.8,127.5 407,123.1 423,118.9 428.8,109.3 437.5,116.4 
		453.9,114.9 443.3,123.5 	"/>
	<polygon class="st10" points="218.9,145.9 203.6,144.1 189.8,150.9 191,141.2 178.2,136.8 194.2,132.6 200,123 208.7,130.1 
		225.1,128.7 214.5,137.2 	"/>
	<polygon class="st10" points="267.5,154.2 252.2,152.3 238.5,159.2 239.7,149.5 226.8,145 242.8,140.9 248.6,131.3 257.3,138.4 
		273.8,136.9 263.2,145.5 	"/>
	<polygon class="st10" points="318.8,156.1 303.5,154.2 289.7,161.1 290.9,151.4 278,147 294.1,142.8 299.9,133.2 308.6,140.3 
		325,138.8 314.4,147.4 	"/>
	<polygon class="st10" points="371.9,157.6 356.6,155.8 342.8,162.6 344,153 331.1,148.5 347.1,144.4 353,134.8 361.7,141.9 
		378.1,140.4 367.5,148.9 	"/>
	<polygon class="st10" points="418.4,159.2 403.1,157.3 389.4,164.2 390.6,154.5 377.7,150.1 393.7,145.9 399.5,136.3 408.2,143.4 
		424.7,141.9 414,150.5 	"/>
</g>
<path class="st2" d="M351.6,88.1l-121.2,30.7c-2.7,0.7-4.3,3.4-3.6,6.1l1.2,4.6c0.7,2.7,3.4,4.3,6.1,3.6l121.2-30.7
	c2.7-0.7,4.3-3.4,3.6-6.1l-1.2-4.6C357,89,354.3,87.4,351.6,88.1z"/>
<circle class="st5" cx="236.4" cy="125" r="5.2"/>
<circle class="st5" cx="347.4" cy="96.7" r="5.2"/>
<path class="st1" d="M294.6,118.5c0,0-17.3,4.7-14.7,8c2.7,3.3,41.3,0.7,29.3,9.3c-12,8.7-30.7-1.3-36.7,8c-6,9.3,24.7,6,38,17.3
	c13.3,11.3-30,6-42,8.7c0,0,14.3,3.1,20.7,3.6"/>
<path class="st1" d="M275,168.3"/>
<polyline class="st3" points="208.2,488.2 226,453.3 235.3,515.7 246.5,469 259.5,514.5 267.3,468.8 276.5,489.2 279.3,479.3 "/>
<path class="st3" d="M306.8,431.8"/>
<path class="st2" d="M267.3,842h-78c-6.1,0-11-5-11-11l0,0c0-6,4.9-11,11-11h78c6,0,11,5,11,11l0,0C278.3,837,273.4,842,267.3,842z"
	/>
<path class="st2" d="M368,842.3h-78c-6.1,0-11-5-11-11l0,0c0-6,4.9-11,11-11h78c6,0,11,5,11,11l0,0C379,837.3,374,842.3,368,842.3z"
	/>
</svg>
